<?xml version="1.0" encoding="UTF-8"?>
<svg version="1.1" xmlns="http://www.w3.org/2000/svg" width="208" height="222">
<path d="M0 0 C68.64 0 137.28 0 208 0 C208 73.26 208 146.52 208 222 C139.36 222 70.72 222 0 222 C0 148.74 0 75.48 0 0 Z " fill="#0C0E2C" transform="translate(0,0)"/>
<path d="M0 0 C2.6761713 0.01078904 5.35167995 -0.00000519 8.02783203 -0.01269531 C35.14567715 -0.03991955 35.14567715 -0.03991955 45.91455078 10.26074219 C47.57137459 11.81667132 49.23253188 13.36774856 50.89697266 14.91552734 C52.00246566 15.94979012 53.09944261 16.99326133 54.18603516 18.04736328 C61.37329975 24.89334582 69.34480974 27.61371959 78.61962891 30.61621094 C85.10184723 32.7851288 90.67265059 34.73170827 94.25048828 40.91308594 C94.95585681 42.32896561 95.63479474 43.75825798 96.28955078 45.19824219 C96.8082373 46.32951538 96.8082373 46.32951538 97.33740234 47.48364258 C101.10319427 56.25348559 101.33544293 63.97114239 98.16455078 73.01074219 C97.18017578 75.43261719 97.18017578 75.43261719 95.91455078 77.26074219 C93.77392578 78.02636719 93.77392578 78.02636719 91.91455078 78.26074219 C92.57092978 73.77548571 93.61529287 69.5916019 94.91455078 65.26074219 C94.17591797 65.53789062 93.43728516 65.81503906 92.67626953 66.10058594 C91.66177734 66.4628125 90.64728516 66.82503906 89.60205078 67.19824219 C88.61591797 67.55789062 87.62978516 67.91753906 86.61376953 68.28808594 C78.81579519 70.33845089 70.9022984 70.3152881 62.88720703 70.36621094 C61.25504531 70.38115652 59.62288386 70.39613087 57.99072266 70.41113281 C55.46674948 70.43410722 52.94423296 70.44808238 50.42016602 70.43579102 C47.94981809 70.42700143 45.48226443 70.45574909 43.01220703 70.49121094 C42.25802994 70.47897995 41.50385284 70.46674896 40.7268219 70.45414734 C36.79582289 70.54526163 35.22703873 70.93489178 32.47094727 73.80883789 C30.44052041 77.85947648 30.44052041 77.85947648 29.91455078 85.26074219 C37.50455078 85.92074219 45.09455078 86.58074219 52.91455078 87.26074219 C50.2846397 89.89065327 49.11070123 89.5186814 45.44262695 89.53540039 C43.72525581 89.54969841 43.72525581 89.54969841 41.97319031 89.56428528 C40.73051895 89.56337387 39.4878476 89.56246246 38.20751953 89.56152344 C36.29849602 89.56795113 36.29849602 89.56795113 34.35090637 89.57450867 C31.65315024 89.58026213 28.95577539 89.58167613 26.25805664 89.57641602 C22.80795044 89.57063422 19.35838333 89.58751714 15.9083662 89.61076069 C12.61225484 89.62908053 9.31617263 89.62531162 6.02001953 89.62402344 C4.78342087 89.63323318 3.5468222 89.64244293 2.27275085 89.65193176 C0.54119499 89.64258858 0.54119499 89.64258858 -1.2253418 89.63305664 C-2.2385701 89.63368607 -3.2517984 89.63431549 -4.29573059 89.63496399 C-8.46531488 89.07564258 -11.12350826 87.38586956 -13.83544922 84.21386719 C-15.66364418 79.89475658 -15.79860403 75.65893816 -16.08544922 71.01074219 C-16.39812372 59.89408671 -16.39812372 59.89408671 -21.08544922 50.26074219 C-23.5433695 49.92730668 -23.5433695 49.92730668 -26.08544922 50.26074219 C-28.36279932 53.07584212 -28.36279932 53.07584212 -28.08544922 56.26074219 C-27.59044922 55.27074219 -27.59044922 55.27074219 -27.08544922 54.26074219 C-25.76544922 54.59074219 -24.44544922 54.92074219 -23.08544922 55.26074219 C-24.07544922 55.92074219 -25.06544922 56.58074219 -26.08544922 57.26074219 C-27.23238679 60.7015549 -27.25364659 63.44820931 -27.27294922 67.07324219 C-27.28712891 68.2759375 -27.30130859 69.47863281 -27.31591797 70.71777344 C-27.08669594 74.24157644 -26.35575901 76.98203747 -25.08544922 80.26074219 C-22.09212183 79.26296639 -21.13778606 78.50853969 -19.08544922 76.26074219 C-18.71621845 81.6761268 -18.71621845 81.6761268 -20.58544922 84.63574219 C-21.08044922 85.17199219 -21.57544922 85.70824219 -22.08544922 86.26074219 C-24.93083574 85.96639186 -25.90278667 85.47723114 -27.77294922 83.26074219 C-29.50443779 79.30305402 -29.81505176 75.54048134 -30.08544922 71.26074219 C-30.76607422 71.17566406 -31.44669922 71.09058594 -32.14794922 71.00292969 C-35.8410922 70.06982175 -38.84442343 68.31789218 -42.08544922 66.38574219 C-42.68873047 66.03382813 -43.29201172 65.68191406 -43.91357422 65.31933594 C-45.64251691 64.30828032 -47.36414971 63.28475601 -49.08544922 62.26074219 C-50.51630859 61.62072266 -50.51630859 61.62072266 -51.97607422 60.96777344 C-54.08544922 59.26074219 -54.08544922 59.26074219 -54.75732422 55.82714844 C-54.80766158 54.4932084 -54.83288951 53.15812919 -54.83544922 51.82324219 C-54.90853729 45.96071309 -54.90853729 45.96071309 -56.08544922 40.26074219 C-57.40544922 39.93074219 -58.72544922 39.60074219 -60.08544922 39.26074219 C-59.61744211 35.20468054 -59.20591714 31.79485539 -57.08544922 28.26074219 C-58.73544922 27.27074219 -60.38544922 26.28074219 -62.08544922 25.26074219 C-61.42544922 23.61074219 -60.76544922 21.96074219 -60.08544922 20.26074219 C-54.03076172 20.06542969 -54.03076172 20.06542969 -52.08544922 20.26074219 C-51.42544922 20.92074219 -50.76544922 21.58074219 -50.08544922 22.26074219 C-45.94035489 22.54676381 -45.94035489 22.54676381 -42.08544922 21.26074219 C-40.5669972 21.16601307 -39.04434538 21.13085809 -37.52294922 21.13574219 C-36.31445312 21.131875 -36.31445312 21.131875 -35.08154297 21.12792969 C-33.08544922 21.26074219 -33.08544922 21.26074219 -32.08544922 22.26074219 C-32.04464139 24.26032582 -32.04290566 26.26119473 -32.08544922 28.26074219 C-35.71544922 28.26074219 -39.34544922 28.26074219 -43.08544922 28.26074219 C-43.08544922 28.92074219 -43.08544922 29.58074219 -43.08544922 30.26074219 C-37.80544922 30.59074219 -32.52544922 30.92074219 -27.08544922 31.26074219 C-28.10389324 23.19153186 -29.20157997 15.86367022 -32.08544922 8.26074219 C-38.20319818 7.76133411 -41.11040875 9.01173617 -46.08544922 12.26074219 C-44.36065044 7.8703453 -41.32605022 5.64324068 -37.38720703 3.21289062 C-34.21160072 1.89926476 -31.01979922 1.52777504 -27.63232422 1.15136719 C-26.89069031 1.067276 -26.1490564 0.98318481 -25.38494873 0.89654541 C-16.93259026 0.02400575 -8.49002862 -0.04064459 0 0 Z " fill="#1FB1F0" transform="translate(95.08544921875,63.7392578125)"/>
<path d="M0 0 C0.87736816 0.1556543 1.75473633 0.31130859 2.65869141 0.47167969 C14.64113918 2.69056948 26.19493334 6.18457437 37.75 10 C38.38802551 10.20924103 39.02605103 10.41848206 39.68341064 10.63406372 C59.02052884 17.02052884 59.02052884 17.02052884 63 21 C63.10339507 22.40841719 63.13850285 23.82193972 63.14526367 25.23413086 C63.15164352 26.13695297 63.15802338 27.03977509 63.16459656 27.96995544 C63.16626579 29.45242516 63.16626579 29.45242516 63.16796875 30.96484375 C63.17129715 31.98614883 63.17462555 33.00745392 63.17805481 34.05970764 C63.18313599 36.23796132 63.18546277 38.41622283 63.18530273 40.59448242 C63.18745206 43.86456054 63.20548938 47.13428027 63.22460938 50.40429688 C63.25118395 60.04148764 63.16241008 69.60322982 62.11328125 79.19140625 C62.03554977 79.90312485 61.9578183 80.61484344 61.87773132 81.34812927 C61.36625718 85.43474031 60.42946469 89.14070791 59 93 C58.34 93 57.68 93 57 93 C55.52734375 91.06640625 55.52734375 91.06640625 53.9375 88.5625 C52.16321108 85.6281857 52.16321108 85.6281857 50 83 C49.93591921 81.28039382 49.94300054 79.55808472 49.97827148 77.83764648 C49.99836777 76.73658066 50.01846405 75.63551483 50.03916931 74.50108337 C50.06620438 73.3031868 50.09323944 72.10529022 50.12109375 70.87109375 C50.14470474 69.65172623 50.16831573 68.4323587 50.19264221 67.17604065 C50.26950806 63.26308199 50.35343338 59.35030996 50.4375 55.4375 C50.49069775 52.79232699 50.54343827 50.14714474 50.59570312 47.50195312 C50.72515407 41.00118541 50.86040856 34.50055744 51 28 C50.31224991 27.7970784 49.62449982 27.5941568 48.91590881 27.38508606 C48.01432541 27.11725815 47.112742 26.84943024 46.18383789 26.57348633 C45.2898378 26.30868973 44.39583771 26.04389313 43.4747467 25.77107239 C40.71018587 24.90970079 38.09318674 23.83922107 35.4375 22.6875 C18.47613546 16.07476541 0.02233485 13.02082021 -18 11 C-19.72669922 10.80277344 -19.72669922 10.80277344 -21.48828125 10.6015625 C-24.66267291 10.30308095 -27.81379894 10.12113437 -31 10 C-31.69287109 9.97276855 -32.38574219 9.94553711 -33.09960938 9.91748047 C-53.02323241 9.24231933 -72.79578513 11.67668484 -92 17 C-92.95503418 17.26361328 -93.91006836 17.52722656 -94.89404297 17.79882812 C-98.07902745 18.68627588 -101.25917573 19.5889968 -104.4375 20.5 C-105.93023437 20.92684082 -105.93023437 20.92684082 -107.453125 21.36230469 C-113.79784399 23.22452643 -119.90849924 25.42812579 -126 28 C-127.05301017 62.76015813 -127.05301017 62.76015813 -122 97 C-121.71125 98.20269531 -121.4225 99.40539062 -121.125 100.64453125 C-120.23971612 103.84973317 -119.18920592 106.89464409 -118 110 C-117.73203613 110.70398926 -117.46407227 111.40797852 -117.18798828 112.13330078 C-107.70581152 136.70285668 -92.68901012 159.35491507 -72 176 C-71.04480469 176.76957031 -70.08960937 177.53914062 -69.10546875 178.33203125 C-61.41293871 184.42806544 -53.39771913 189.91976314 -45 195 C-44.33097656 195.4125 -43.66195312 195.825 -42.97265625 196.25 C-40.00495083 197.37831572 -38.18083562 197.43238309 -35 197 C-31.85583973 195.55055898 -29.01357294 193.71319331 -26.125 191.8125 C-25.29073486 191.27222168 -24.45646973 190.73194336 -23.59692383 190.17529297 C-9.54188121 180.90497412 5.26376036 169.6478301 15.45263672 156.06323242 C18.1908744 152.44888745 19.28525941 151.1667728 23.8671875 150.09765625 C25.20239057 150.05184046 26.53919233 150.04049542 27.875 150.0625 C28.56335938 150.04638672 29.25171875 150.03027344 29.9609375 150.01367188 C31.64026678 149.97868585 33.32037293 149.98504149 35 150 C30.85627195 159.12036627 22.75941957 166.75110521 16 174 C15.31421875 174.73992187 14.6284375 175.47984375 13.921875 176.2421875 C4.77208556 185.76474614 -6.04480967 193.67906739 -17 201 C-17.96292969 201.65355469 -18.92585938 202.30710938 -19.91796875 202.98046875 C-21.38169922 203.94919922 -21.38169922 203.94919922 -22.875 204.9375 C-24.20144531 205.81728516 -24.20144531 205.81728516 -25.5546875 206.71484375 C-28 208 -28 208 -32 208 C-32 208.66 -32 209.32 -32 210 C-35.01249067 212.04849365 -37.3340108 212.20850454 -40.89282227 211.62670898 C-45.40658344 210.28424288 -49.25798951 207.52967318 -53.1875 205 C-54.12005615 204.40912598 -55.0526123 203.81825195 -56.01342773 203.20947266 C-66.98701003 196.19027424 -77.03139584 188.49547941 -86.44824219 179.484375 C-87.49884115 178.47939676 -88.55434534 177.47952573 -89.61425781 176.484375 C-120.70093004 147.22633055 -138.54890084 106.42446453 -140.07684326 63.85931396 C-140.22239447 58.28154621 -140.2547314 52.70445611 -140.25 47.125 C-140.24940582 46.34728241 -140.24881165 45.56956482 -140.24819946 44.76828003 C-140.23380243 39.84234443 -140.13576778 34.92403476 -140 30 C-139.99830811 28.95851807 -139.99661621 27.91703613 -139.99487305 26.84399414 C-139.90969551 24.38058781 -139.78306876 22.33514651 -139 20 C-136.5044137 17.98394449 -135.20030166 17.20655667 -132.3125 16.1875 C-131.28721191 15.77371094 -131.28721191 15.77371094 -130.24121094 15.3515625 C-128.17332498 14.52937946 -126.08971684 13.76458031 -124 13 C-122.95714844 12.57332031 -121.91429687 12.14664062 -120.83984375 11.70703125 C-82.57723049 -3.24005787 -40.36432759 -7.28060707 0 0 Z " fill="#399EED" transform="translate(142,9)"/>
<path d="M0 0 C2.07486109 0.00541418 4.14951015 -0.00001817 6.22436523 -0.00634766 C10.06612582 -0.01114472 13.90483076 0.05224152 17.74584961 0.13037109 C19.19507812 0.1274707 19.19507812 0.1274707 20.67358398 0.12451172 C27.5720892 0.37182655 30.92256455 3.00441979 35.62084961 7.88037109 C36.25764648 8.50169922 36.89444336 9.12302734 37.55053711 9.76318359 C40.87513951 13.04622847 43.85605895 16.45417322 46.74584961 20.13037109 C45.43616211 20.12513428 44.12647461 20.11989746 42.77709961 20.11450195 C37.84188542 20.09617786 32.90667412 20.08484062 27.97143555 20.07543945 C25.84968558 20.07046108 23.72793896 20.06367597 21.60620117 20.05493164 C10.39972599 20.00995759 -0.73674037 20.04603492 -11.91430664 20.90771484 C-17.02806447 21.24863203 -22.13199002 21.21768065 -27.25415039 21.13037109 C-30.32412874 14.9904144 -31.3095741 8.89798237 -32.25415039 2.13037109 C-22.47398558 -1.12968384 -10.26540645 -0.03180038 0 0 Z " fill="#0D0F2D" transform="translate(102.254150390625,67.86962890625)"/>
<path d="M0 0 C5.94481181 -0.04934399 11.88950509 -0.08569282 17.83447266 -0.10986328 C19.85793127 -0.11993671 21.88137528 -0.13359595 23.90478516 -0.15087891 C26.80895589 -0.17506847 29.71293461 -0.18646949 32.6171875 -0.1953125 C33.52556366 -0.20563507 34.43393982 -0.21595764 35.36984253 -0.22659302 C36.21056305 -0.22674408 37.05128357 -0.22689514 37.91748047 -0.22705078 C39.03000687 -0.23371262 39.03000687 -0.23371262 40.16500854 -0.24050903 C42 0 42 0 44 2 C44.265625 3.875 44.265625 3.875 44.25 6 C44.25773437 7.051875 44.25773437 7.051875 44.265625 8.125 C44 10 44 10 42 12 C39.17844729 12.24899382 36.45869105 12.37653541 33.6328125 12.40625 C32.80167938 12.41765015 31.97054626 12.42905029 31.11422729 12.4407959 C29.35403542 12.4597025 27.59377265 12.47276654 25.83349609 12.48046875 C23.14164541 12.49987997 20.45285164 12.56189961 17.76171875 12.625 C16.05210149 12.63806076 14.34246236 12.64856144 12.6328125 12.65625 C11.82852814 12.6809436 11.02424377 12.70563721 10.19558716 12.7310791 C7.91064453 12.71289062 7.91064453 12.71289062 4 12 C0.98410989 8.83392424 0.07278501 6.98259767 -0.25 2.625 C-0.12625 1.325625 -0.12625 1.325625 0 0 Z " fill="#0C102D" transform="translate(127,110)"/>
<path d="M0 0 C2.69814067 0.01081616 5.39562805 -0.00001892 8.09375 -0.01269531 C16.84556085 -0.01871817 25.25886853 0.10402214 33.8046875 2.26074219 C34.2996875 3.74574219 34.2996875 3.74574219 34.8046875 5.26074219 C33.62664551 5.25550537 32.44860352 5.25026855 31.23486328 5.24487305 C26.77295726 5.2264748 22.31105442 5.21518593 17.84912109 5.20581055 C15.93505282 5.2008485 14.02098819 5.19407673 12.10693359 5.18530273 C-0.36707498 5.12964443 -12.74907841 5.40772027 -25.1953125 6.26074219 C-24.85757813 7.36546875 -24.51984375 8.47019531 -24.171875 9.60839844 C-23.28595213 12.92174998 -22.96560712 14.18647873 -24.1953125 17.26074219 C-24.5253125 16.60074219 -24.8553125 15.94074219 -25.1953125 15.26074219 C-25.3396875 15.83824219 -25.4840625 16.41574219 -25.6328125 17.01074219 C-26.15364583 19.09407552 -26.67447917 21.17740885 -27.1953125 23.26074219 C-27.61103516 21.88789062 -27.61103516 21.88789062 -28.03515625 20.48730469 C-28.39738281 19.29878906 -28.75960937 18.11027344 -29.1328125 16.88574219 C-29.49246094 15.70238281 -29.85210937 14.51902344 -30.22265625 13.29980469 C-31.07107524 10.38147401 -31.07107524 10.38147401 -32.1953125 8.26074219 C-38.31306146 7.76133411 -41.22027203 9.01173617 -46.1953125 12.26074219 C-44.47049751 7.87030403 -41.43582394 5.64278805 -37.49658203 3.21289062 C-34.32347731 1.90002107 -31.13488667 1.52775379 -27.75 1.15136719 C-27.00877899 1.067276 -26.26755798 0.98318481 -25.50387573 0.89654541 C-17.01243212 0.02007315 -8.52921902 -0.04064511 0 0 Z " fill="#2CB5E6" transform="translate(95.1953125,63.7392578125)"/>
<path d="M0 0 C10.43557339 0.52109302 20.6559771 1.50807362 31 3 C28.69 6.96 26.38 10.92 24 15 C17.73 14.67 11.46 14.34 5 14 C0 3.375 0 3.375 0 0 Z " fill="#0D1433" transform="translate(92,131)"/>
<path d="M0 0 C1.04019287 -0.01289062 2.08038574 -0.02578125 3.15209961 -0.0390625 C10.05821467 -0.0478148 16.50368231 0.71601573 23.25 2.1875 C23.745 3.6725 23.745 3.6725 24.25 5.1875 C7.09 4.8575 -10.07 4.5275 -27.75 4.1875 C-27.75 3.1975 -27.75 2.2075 -27.75 1.1875 C-18.50254308 0.34545514 -9.28391718 0.05510152 0 0 Z " fill="#39CFF6" transform="translate(105.75,63.8125)"/>
<path d="M0 0 C6.0546875 -0.1953125 6.0546875 -0.1953125 8 0 C8.66 0.66 9.32 1.32 10 2 C14.14509433 2.28602162 14.14509433 2.28602162 18 1 C19.51845202 0.90527088 21.04110384 0.8701159 22.5625 0.875 C23.77099609 0.87113281 23.77099609 0.87113281 25.00390625 0.8671875 C27 1 27 1 28 2 C28.04080783 3.99958364 28.04254356 6.00045254 28 8 C24.37 8 20.74 8 17 8 C16.67 8.66 16.34 9.32 16 10 C16 8.68 16 7.36 16 6 C14.56465159 5.7773254 13.12654475 5.57238094 11.6875 5.375 C10.88699219 5.25898437 10.08648437 5.14296875 9.26171875 5.0234375 C6.71276785 4.78466593 6.71276785 4.78466593 4 7 C0.8125 6.125 0.8125 6.125 -2 5 C-1.34 3.35 -0.68 1.7 0 0 Z " fill="#2EAEEC" transform="translate(35,84)"/>
<path d="M0 0 C7.49440349 0.4996269 13.95650263 2.43764478 21 5 C21.33 6.65 21.66 8.3 22 10 C15.55929529 10.10655578 9.37358711 9.96205088 3 9 C2.690625 7.88625 2.38125 6.7725 2.0625 5.625 C1.17673517 2.2054845 1.17673517 2.2054845 0 0 Z " fill="#0F1737" transform="translate(98,106)"/>
<path d="M0 0 C1.4783226 2.95664519 1.06032783 5.74229737 1 9 C-0.45537568 9.83848804 -1.91440373 10.67063934 -3.375 11.5 C-4.18710938 11.9640625 -4.99921875 12.428125 -5.8359375 12.90625 C-8 14 -8 14 -10 14 C-10.66 10.7 -11.32 7.4 -12 4 C-3.375 -1.125 -3.375 -1.125 0 0 Z " fill="#0C1738" transform="translate(186,104)"/>
<path d="M0 0 C4.55096681 1.43363789 7.50405692 4.00392669 10.875 7.25 C11.92889926 8.24172375 12.98358332 9.23261417 14.0390625 10.22265625 C14.79751465 10.93832764 14.79751465 10.93832764 15.57128906 11.66845703 C18.29856262 14.21024616 21.14734974 16.60118046 24 19 C23.01 19.99 22.02 20.98 21 22 C16.68710886 18.39125436 12.63330026 14.68782351 8.70703125 10.6640625 C7.08601903 9.08385379 5.41008826 7.70137536 3.625 6.3125 C1.10403312 4.09164823 0.24297706 3.28019026 0 0 Z " fill="#0FA8E6" transform="translate(129,66)"/>
<path d="M0 0 C0.598125 0.226875 1.19625 0.45375 1.8125 0.6875 C0.8225 1.3475 -0.1675 2.0075 -1.1875 2.6875 C-2.33443757 6.12831271 -2.35569738 8.87496712 -2.375 12.5 C-2.38917969 13.70269531 -2.40335937 14.90539062 -2.41796875 16.14453125 C-2.18874672 19.66833425 -1.45780979 22.40879528 -0.1875 25.6875 C2.80582739 24.6897242 3.76016315 23.9352975 5.8125 21.6875 C6.18173077 27.10288462 6.18173077 27.10288462 4.3125 30.0625 C3.57 30.866875 3.57 30.866875 2.8125 31.6875 C1 31.5 1 31.5 -1.1875 30.6875 C-5.6515562 24.90076048 -5.3892155 17.99521717 -5.4375 11 C-5.458125 10.24138672 -5.47875 9.48277344 -5.5 8.70117188 C-5.53879396 3.20697719 -5.53879396 3.20697719 -3.80859375 0.6484375 C-2.1875 -0.3125 -2.1875 -0.3125 0 0 Z " fill="#1A7ABD" transform="translate(70.1875,118.3125)"/>
<path d="M0 0 C0.33 0 0.66 0 1 0 C1.02835938 0.556875 1.05671875 1.11375 1.0859375 1.6875 C1.79209317 7.33674539 3.43228873 9.84690151 7.9375 13.375 C8.81277344 14.00148438 9.68804687 14.62796875 10.58984375 15.2734375 C12.6252455 16.7315373 14.3022489 18.1733767 16 20 C15.67 20.66 15.34 21.32 15 22 C9.19736721 21.01721174 4.01438781 19.49611435 0 15 C-0.88562435 9.86874617 -0.5898728 5.15155577 0 0 Z " fill="#29A7EF" transform="translate(41,108)"/>
<path d="M0 0 C7.24997422 -0.28307925 13.90961228 0.49025965 21 2 C21.495 3.485 21.495 3.485 22 5 C10.78 4.67 -0.44 4.34 -12 4 C-12 3.67 -12 3.34 -12 3 C-11.21753906 2.95101562 -10.43507813 2.90203125 -9.62890625 2.8515625 C-8.61699219 2.77679688 -7.60507813 2.70203125 -6.5625 2.625 C-5.55316406 2.55539063 -4.54382813 2.48578125 -3.50390625 2.4140625 C-2.26447266 2.20910156 -2.26447266 2.20910156 -1 2 C-0.67 1.34 -0.34 0.68 0 0 Z " fill="#2FBFE9" transform="translate(108,64)"/>
<path d="M0 0 C0.33 0 0.66 0 1 0 C1.45223815 8.01466507 1.76556657 16.11640384 -3 23 C-5.140625 23.765625 -5.140625 23.765625 -7 24 C-6.34679993 19.5364662 -5.50375423 15.26063699 -4 11 C-3.01 10.67 -2.02 10.34 -1 10 C-0.67 6.7 -0.34 3.4 0 0 Z " fill="#0692DD" transform="translate(194,118)"/>
<path d="M0 0 C0.99 0 1.98 0 3 0 C5 2 5 2 5.125 5.125 C5.08375 6.07375 5.0425 7.0225 5 8 C2.89590361 8.02701408 0.79170822 8.04640223 -1.3125 8.0625 C-2.48425781 8.07410156 -3.65601563 8.08570312 -4.86328125 8.09765625 C-8 8 -8 8 -11 7 C-11 6.34 -11 5.68 -11 5 C-7.37 5 -3.74 5 0 5 C0 3.35 0 1.7 0 0 Z " fill="#12213F" transform="translate(63,87)"/>
<path d="M0 0 C1.4370809 -0.05422947 2.87475462 -0.09289723 4.3125 -0.125 C5.11300781 -0.14820312 5.91351563 -0.17140625 6.73828125 -0.1953125 C9 0 9 0 12 2 C11.67 3.32 11.34 4.64 11 6 C4.63636364 6.48951049 4.63636364 6.48951049 1.5625 4.125 C0 2 0 2 0 0 Z " fill="#0AB1E7" transform="translate(154,81)"/>
<path d="M0 0 C7.42686315 -0.10331031 14.63512596 0.00137301 22 1 C20 3 20 3 17.93701172 3.22705078 C16.69588623 3.21134033 16.69588623 3.21134033 15.4296875 3.1953125 C14.53378906 3.18886719 13.63789063 3.18242187 12.71484375 3.17578125 C11.77769531 3.15902344 10.84054688 3.14226562 9.875 3.125 C8.93011719 3.11597656 7.98523438 3.10695312 7.01171875 3.09765625 C4.67422708 3.07404522 2.33723877 3.04111516 0 3 C0 2.01 0 1.02 0 0 Z " fill="#0A8ECD" transform="translate(126,150)"/>
<path d="M0 0 C7.875 0.875 7.875 0.875 9 2 C9.04080783 3.99958364 9.04254356 6.00045254 9 8 C5.41209425 7.70100785 4.21833224 7.23013399 1.6875 4.5625 C0 2 0 2 0 0 Z " fill="#2FC0F0" transform="translate(91,106)"/>
<path d="M0 0 C0 0.33 0 0.66 0 1 C-4.95 1 -9.9 1 -15 1 C-15 1.99 -15 2.98 -15 4 C-11.7 4 -8.4 4 -5 4 C-5 4.33 -5 4.66 -5 5 C-7.77141717 5.08089542 -10.54047819 5.14044062 -13.3125 5.1875 C-14.09818359 5.21263672 -14.88386719 5.23777344 -15.69335938 5.26367188 C-16.45068359 5.27333984 -17.20800781 5.28300781 -17.98828125 5.29296875 C-18.68477783 5.3086792 -19.38127441 5.32438965 -20.09887695 5.34057617 C-22.54489783 4.90238443 -23.42702086 3.86562642 -25 2 C-16.63994116 -0.38858824 -8.61264844 -0.190218 0 0 Z " fill="#30A7D4" transform="translate(93,64)"/>
<path d="M0 0 C0.33 0 0.66 0 1 0 C1.36923077 5.41538462 1.36923077 5.41538462 -0.5 8.375 C-0.995 8.91125 -1.49 9.4475 -2 10 C-3.875 9.6875 -3.875 9.6875 -6 9 C-8 6 -8 6 -8 2 C-7.34 2 -6.68 2 -6 2 C-5.67 2.66 -5.34 3.32 -5 4 C-1.72226496 3.24849977 -1.72226496 3.24849977 0 0 Z " fill="#1295E5" transform="translate(75,140)"/>
<path d="M0 0 C0 5.51375743 -5.31506263 9.21546972 -9 13 C-11.2702007 15.23993136 -13.42329796 17.09324049 -16 19 C-16.99 18.67 -17.98 18.34 -19 18 C-18.38253906 17.45472656 -17.76507813 16.90945312 -17.12890625 16.34765625 C-11.21781284 11.0843539 -5.53581064 5.65615435 0 0 Z " fill="#0E47DC" transform="translate(155,168)"/>
<path d="M0 0 C0.66 0 1.32 0 2 0 C2 5.28 2 10.56 2 16 C1.34 16 0.68 16 0 16 C-1.29758261 13.40483479 -1.13269102 11.45816973 -1.125 8.5625 C-1.12757812 7.59441406 -1.13015625 6.62632813 -1.1328125 5.62890625 C-1 3 -1 3 0 0 Z " fill="#26A0D1" transform="translate(37,109)"/>
<path d="M0 0 C1.47906892 -0.02689216 2.95827483 -0.04634621 4.4375 -0.0625 C5.26121094 -0.07410156 6.08492187 -0.08570312 6.93359375 -0.09765625 C9 0 9 0 10 1 C10.04080783 2.99958364 10.04254356 5.00045254 10 7 C6.37 7 2.74 7 -1 7 C-1.33 7.66 -1.66 8.32 -2 9 C-2 8.01 -2 7.02 -2 6 C1.3 6 4.6 6 8 6 C8 4.68 8 3.36 8 2 C5.36 2 2.72 2 0 2 C0 1.34 0 0.68 0 0 Z " fill="#2EA8DF" transform="translate(53,85)"/>
<path d="M0 0 C0.66 0 1.32 0 2 0 C3.26582219 3.86723631 3.1118765 7.73151262 3.0625 11.75 C3.05798828 12.44738281 3.05347656 13.14476563 3.04882812 13.86328125 C3.0371002 15.57555803 3.01916653 17.28779033 3 19 C2.34 19.33 1.68 19.66 1 20 C0.67 13.4 0.34 6.8 0 0 Z " fill="#12244F" transform="translate(38,104)"/>
<path d="M0 0 C4.64294955 0.62742561 4.64294955 0.62742561 6.4375 2.5 C8.70217889 4.67409173 10.95707737 4.66189749 14 5 C13.34 5.66 12.68 6.32 12 7 C12.33 7.66 12.66 8.32 13 9 C7.50151887 7.65890704 3.907435 4.96523729 0 1 C0 0.67 0 0.34 0 0 Z " fill="#0A254C" transform="translate(150,82)"/>
<path d="M0 0 C3.48331435 3.01887244 4.79157144 5.56909529 6 10 C5.01 10.99 4.02 11.98 3 13 C2.34 10.36 1.68 7.72 1 5 C0.01 5 -0.98 5 -2 5 C-2 4.34 -2 3.68 -2 3 C-1.34 3 -0.68 3 0 3 C0 2.01 0 1.02 0 0 Z " fill="#0899E2" transform="translate(184,99)"/>
<path d="M0 0 C2.31 0.33 4.62 0.66 7 1 C5.25 4.875 5.25 4.875 3 6 C0.875 5.0625 0.875 5.0625 -1 4 C-0.67 2.68 -0.34 1.36 0 0 Z " fill="#2DBAFA" transform="translate(36,85)"/>
<path d="M0 0 C3.3 0 6.6 0 10 0 C10.33 0.99 10.66 1.98 11 3 C7.7 3 4.4 3 1 3 C0.67 2.01 0.34 1.02 0 0 Z " fill="#21B9E6" transform="translate(119,66)"/>
<path d="M0 0 C4.10110762 1.40398279 6.98089159 3.37087038 10.3125 6.125 C11.19550781 6.84945312 12.07851563 7.57390625 12.98828125 8.3203125 C13.65214844 8.87460938 14.31601562 9.42890625 15 10 C11.0032716 10 9.5590849 8.48575951 6.375 6.125 C5.39273438 5.40570313 4.41046875 4.68640625 3.3984375 3.9453125 C1 2 1 2 0 0 Z " fill="#0D2B55" transform="translate(44,117)"/>
<path d="M0 0 C0.99 0.33 1.98 0.66 3 1 C2.34 4.96 1.68 8.92 1 13 C0.01 13 -0.98 13 -2 13 C-1.52286643 8.86484243 -0.90800255 5.6797192 1 2 C0.67 1.34 0.34 0.68 0 0 Z " fill="#3093DC" transform="translate(37,90)"/>
<path d="M0 0 C5.94074887 1.00332648 10.20186518 2.30912706 15 6 C13 7 13 7 9.7421875 6.00390625 C8.4502948 5.53110016 7.16131362 5.05028031 5.875 4.5625 C5.21628906 4.31951172 4.55757812 4.07652344 3.87890625 3.82617188 C2.25008662 3.22421679 0.62470425 2.61297588 -1 2 C-0.67 1.34 -0.34 0.68 0 0 Z " fill="#148AD1" transform="translate(178,30)"/>
<path d="M0 0 C-1.44253657 3.36591866 -3.33264727 5.51047079 -6 8 C-5.34 6.02 -4.68 4.04 -4 2 C-5.65 2 -7.3 2 -9 2 C-5.5647952 -0.29013653 -4.014669 -0.17842973 0 0 Z " fill="#0A45D6" transform="translate(177,159)"/>
<path d="M0 0 C1.9375 0.375 1.9375 0.375 4 1 C4.33 1.66 4.66 2.32 5 3 C4.01 4.485 4.01 4.485 3 6 C2.34 6 1.68 6 1 6 C0.67 4.02 0.34 2.04 0 0 Z " fill="#2D102E" transform="translate(34,90)"/>
<path d="M0 0 C0.33 0.66 0.66 1.32 1 2 C-1.48952921 4.66735273 -3.63408134 6.55746343 -7 8 C-5.50902342 4.2047869 -3.24299151 2.38957269 0 0 Z " fill="#1EA5D6" transform="translate(56,68)"/>
<path d="M0 0 C0.33 0 0.66 0 1 0 C1.36923077 5.53846154 1.36923077 5.53846154 -0.5 7.875 C-1.2425 8.431875 -1.2425 8.431875 -2 9 C-2.6875 6.75 -2.6875 6.75 -3 4 C-1.625 1.6875 -1.625 1.6875 0 0 Z " fill="#199BDB" transform="translate(75,140)"/>
<path d="M0 0 C0.66 0.33 1.32 0.66 2 1 C0.90554162 1.86657116 -0.20097781 2.71792724 -1.3125 3.5625 C-1.92738281 4.03816406 -2.54226562 4.51382813 -3.17578125 5.00390625 C-3.77777344 5.33261719 -4.37976563 5.66132813 -5 6 C-5.99 5.67 -6.98 5.34 -8 5 C-6.71475739 4.13619741 -5.42157581 3.28419631 -4.125 2.4375 C-3.04605469 1.72400391 -3.04605469 1.72400391 -1.9453125 0.99609375 C-1.30335937 0.66738281 -0.66140625 0.33867187 0 0 Z " fill="#1447D4" transform="translate(115,201)"/>
<path d="M0 0 C0.66 0.33 1.32 0.66 2 1 C1.38125 1.5775 0.7625 2.155 0.125 2.75 C-1.81347053 4.80249821 -2.90014249 6.43366582 -4 9 C-4 6.69 -4 4.38 -4 2 C-2.125 0.9375 -2.125 0.9375 0 0 Z " fill="#75E0E3" transform="translate(7,27)"/>
<path d="M0 0 C0.66 0.33 1.32 0.66 2 1 C0.74458443 3.51083114 -0.50063488 3.87125446 -3 5 C-3.66 4.34 -4.32 3.68 -5 3 C-4.34 3 -3.68 3 -3 3 C-3 2.34 -3 1.68 -3 1 C-2.01 0.67 -1.02 0.34 0 0 Z " fill="#2098E2" transform="translate(59,127)"/>
<path d="M0 0 C0.33 0 0.66 0 1 0 C1.66 3.3 2.32 6.6 3 10 C2.01 10.66 1.02 11.32 0 12 C0 8.04 0 4.08 0 0 Z " fill="#31AEFA" transform="translate(41,108)"/>
</svg>
